HIERARCHY
ROOT Hip
{
	OFFSET -0.877885 -0.166031 -0.018497
	CHANNELS 6 Xposition Yposition Zposition Xrotation Yrotation Zrotation
	JOINT LowerSpine
	{
		OFFSET 0.047024 0.119542 0.273792
		CHANNELS 6 Xposition Yposition Zposition Xrotation Yrotation Zrotation
		JOINT MiddleSpine
		{
			OFFSET -0.021171 -0.028267 0.234775
			CHANNELS 3 Xrotation Yrotation Zrotation
			JOINT Chest
			{
				OFFSET 0.004342 0.030479 0.297691
				CHANNELS 3 Xrotation Yrotation Zrotation
				JOINT Neck
				{
					OFFSET -0.040742 -0.039617 0.658949
					CHANNELS 6 Xposition Yposition Zposition Xrotation Yrotation Zrotation
					JOINT Head
					{
						OFFSET -0.068684 -0.120269 0.361369
						CHANNELS 3 Xrotation Yrotation Zrotation
						End Site
						{
							OFFSET -0.004400 -0.005562 0.053182
						}
					}
				}
				JOINT LClavicle
				{
					OFFSET -0.072781 -0.252006 0.617077
					CHANNELS 6 Xposition Yposition Zposition Xrotation Yrotation Zrotation
					JOINT LShoulder
					{
						OFFSET 0.373468 -0.022766 0.116363
						CHANNELS 3 Xrotation Yrotation Zrotation
						JOINT LForearm
						{
							OFFSET 0.752627 -0.345688 0.022939
							CHANNELS 3 Xrotation Yrotation Zrotation
							JOINT LHand
							{
								OFFSET 0.626762 -0.290385 0.023384
								CHANNELS 3 Xrotation Yrotation Zrotation
								JOINT LFinger1
								{
									OFFSET 0.209365 -0.182822 0.024066
									CHANNELS 6 Xposition Yposition Zposition Xrotation Yrotation Zrotation
									JOINT LFinger11
									{
										OFFSET 0.084900 -0.056660 -0.023008
										CHANNELS 3 Xrotation Yrotation Zrotation
										JOINT LFinger12
										{
											OFFSET 0.057958 -0.038684 -0.015710
											CHANNELS 3 Xrotation Yrotation Zrotation
											End Site
											{
												OFFSET 0.043537 -0.027874 -0.014356
											}
										}
									}
								}
								JOINT LFinger2
								{
									OFFSET 0.241306 -0.123551 0.034519
									CHANNELS 6 Xposition Yposition Zposition Xrotation Yrotation Zrotation
									JOINT LFinger21
									{
										OFFSET 0.112342 -0.052060 0.004175
										CHANNELS 3 Xrotation Yrotation Zrotation
										JOINT LFinger22
										{
											OFFSET 0.062275 -0.028848 0.002335
											CHANNELS 3 Xrotation Yrotation Zrotation
											End Site
											{
												OFFSET 0.048642 -0.022539 -0.002142
											}
										}
									}
								}
								JOINT LFinger3
								{
									OFFSET 0.257442 -0.056004 0.031813
									CHANNELS 6 Xposition Yposition Zposition Xrotation Yrotation Zrotation
									JOINT LFinger31
									{
										OFFSET 0.105039 -0.041029 -0.001552
										CHANNELS 3 Xrotation Yrotation Zrotation
										JOINT LFinger32
										{
											OFFSET 0.059859 -0.023370 -0.000863
											CHANNELS 3 Xrotation Yrotation Zrotation
											End Site
											{
												OFFSET 0.049627 -0.019855 -0.004641
											}
										}
									}
								}
								JOINT LFinger4
								{
									OFFSET 0.261814 -0.005368 -0.000392
									CHANNELS 6 Xposition Yposition Zposition Xrotation Yrotation Zrotation
									JOINT LFinger41
									{
										OFFSET 0.071577 -0.011090 -0.010354
										CHANNELS 3 Xrotation Yrotation Zrotation
										JOINT LFinger42
										{
											OFFSET 0.052490 -0.008126 -0.007576
											CHANNELS 3 Xrotation Yrotation Zrotation
											End Site
											{
												OFFSET 0.051532 -0.009967 -0.011122
											}
										}
									}
								}
								JOINT LFinger0
								{
									OFFSET 0.035362 -0.058230 -0.044193
									CHANNELS 6 Xposition Yposition Zposition Xrotation Yrotation Zrotation
									JOINT LFinger01
									{
										OFFSET 0.062949 -0.111423 -0.038267
										CHANNELS 3 Xrotation Yrotation Zrotation
										JOINT LFinger02
										{
											OFFSET 0.042546 -0.071164 -0.026962
											CHANNELS 3 Xrotation Yrotation Zrotation
											End Site
											{
												OFFSET 0.027270 -0.043282 -0.016175
											}
										}
									}
								}
							}
						}
					}
				}
				JOINT RClavicle
				{
					OFFSET -0.181478 -0.200894 0.613430
					CHANNELS 6 Xposition Yposition Zposition Xrotation Yrotation Zrotation
					JOINT RShoulder
					{
						OFFSET -0.261607 0.275888 0.095069
						CHANNELS 3 Xrotation Yrotation Zrotation
						JOINT RForearm
						{
							OFFSET -0.746178 0.359087 -0.027360
							CHANNELS 3 Xrotation Yrotation Zrotation
							JOINT RHand
							{
								OFFSET -0.623556 0.297545 -0.018575
								CHANNELS 3 Xrotation Yrotation Zrotation
								JOINT RFinger1
								{
									OFFSET -0.275225 0.045044 0.007806
									CHANNELS 6 Xposition Yposition Zposition Xrotation Yrotation Zrotation
									JOINT RFinger11
									{
										OFFSET -0.096358 0.028572 -0.029091
										CHANNELS 3 Xrotation Yrotation Zrotation
										JOINT RFinger12
										{
											OFFSET -0.065783 0.019502 -0.019868
											CHANNELS 3 Xrotation Yrotation Zrotation
											End Site
											{
												OFFSET -0.048364 0.015340 -0.017440
											}
										}
									}
								}
								JOINT RFinger2
								{
									OFFSET -0.250516 0.107713 0.018014
									CHANNELS 6 Xposition Yposition Zposition Xrotation Yrotation Zrotation
									JOINT RFinger21
									{
										OFFSET -0.111775 0.053325 -0.003343
										CHANNELS 3 Xrotation Yrotation Zrotation
										JOINT RFinger22
										{
											OFFSET -0.061952 0.029570 -0.001834
											CHANNELS 3 Xrotation Yrotation Zrotation
											End Site
											{
												OFFSET -0.048178 0.022988 -0.005392
											}
										}
									}
								}
								JOINT RFinger3
								{
									OFFSET -0.208661 0.163169 0.016174
									CHANNELS 6 Xposition Yposition Zposition Xrotation Yrotation Zrotation
									JOINT RFinger31
									{
										OFFSET -0.098325 0.054598 -0.008378
										CHANNELS 3 Xrotation Yrotation Zrotation
										JOINT RFinger32
										{
											OFFSET -0.056029 0.031123 -0.004752
											CHANNELS 3 Xrotation Yrotation Zrotation
											End Site
											{
												OFFSET -0.046603 0.025394 -0.007870
											}
										}
									}
								}
								JOINT RFinger4
								{
									OFFSET -0.170713 0.198016 -0.014907
									CHANNELS 6 Xposition Yposition Zposition Xrotation Yrotation Zrotation
									JOINT RFinger41
									{
										OFFSET -0.053511 0.047730 -0.014552
										CHANNELS 3 Xrotation Yrotation Zrotation
										JOINT RFinger42
										{
											OFFSET -0.039238 0.035007 -0.010651
											CHANNELS 3 Xrotation Yrotation Zrotation
											End Site
											{
												OFFSET -0.039851 0.033002 -0.014190
											}
										}
									}
								}
								JOINT RFinger0
								{
									OFFSET -0.064880 -0.011091 -0.047555
									CHANNELS 6 Xposition Yposition Zposition Xrotation Yrotation Zrotation
									JOINT RFinger01
									{
										OFFSET -0.123691 -0.023663 -0.044536
										CHANNELS 3 Xrotation Yrotation Zrotation
										JOINT RFinger02
										{
											OFFSET -0.080350 -0.013375 -0.031084
											CHANNELS 3 Xrotation Yrotation Zrotation
											End Site
											{
												OFFSET -0.049768 -0.007057 -0.018760
											}
										}
									}
								}
							}
						}
					}
				}
			}
		}
	}
	JOINT RThigh
	{
		OFFSET -0.275484 0.144397 0.110005
		CHANNELS 6 Xposition Yposition Zposition Xrotation Yrotation Zrotation
		JOINT RShin
		{
			OFFSET 0.063897 0.102309 -1.203343
			CHANNELS 3 Xrotation Yrotation Zrotation
			JOINT RFoot
			{
				OFFSET 0.082503 0.091171 -1.180948
				CHANNELS 3 Xrotation Yrotation Zrotation
				JOINT RToe
				{
					OFFSET -0.105740 -0.236063 -0.156813
					CHANNELS 3 Xrotation Yrotation Zrotation
					End Site
					{
						OFFSET -0.022572 -0.048382 -0.005312
					}
				}
			}
		}
	}
	JOINT LThigh
	{
		OFFSET 0.280365 -0.116978 0.128668
		CHANNELS 6 Xposition Yposition Zposition Xrotation Yrotation Zrotation
		JOINT LShin
		{
			OFFSET 0.104142 0.083386 -1.202001
			CHANNELS 3 Xrotation Yrotation Zrotation
			JOINT LFoot
			{
				OFFSET 0.082502 0.091170 -1.180949
				CHANNELS 3 Xrotation Yrotation Zrotation
				JOINT LToe
				{
					OFFSET -0.105741 -0.236065 -0.156817
					CHANNELS 3 Xrotation Yrotation Zrotation
					End Site
					{
						OFFSET -0.022572 -0.048382 -0.005312
					}
				}
			}
		}
	}
}
MOTION
Frames: 5
Frame Time: 0.041667
-0.987072 0.039236 1.944057 13.011969 13.257419 -292.762371 0.047024 0.119542 0.273792 -0.000001 0.000002 -0.000006 -2.747659 0.153593 -6.822826 -9.337015 0.695455 -25.586203 -0.040742 -0.039617 0.658949 -6.578361 6.984538 1.524519 -14.888535 -3.898357 -2.180023 -0.072781 -0.252005 0.617078 0.107260 0.230648 0.025098 10.886910 -6.951304 -20.782894 -0.127768 -0.135996 1.830975 -0.000008 0.000014 -0.000006 0.209365 -0.182822 0.024066 0.000008 0.000001 -0.000010 0.000012 0.000012 -0.000008 -0.000002 -0.000001 0.000004 0.241306 -0.123551 0.034519 0.000003 0.000006 0.000011 -0.000002 -0.000001 -0.000000 0.000009 -0.000001 -0.000005 0.257443 -0.056005 0.031813 0.000001 -0.000007 0.000004 -0.000002 -0.000001 -0.000000 0.000006 0.000008 -0.000011 0.261814 -0.005369 -0.000391 -0.000002 0.000006 0.000000 -0.000001 -0.000013 -0.000010 0.000003 0.000000 0.000000 0.035363 -0.058230 -0.044193 -0.000009 0.000013 -0.000005 0.000015 0.000008 -0.000007 0.000008 0.000003 -0.000004 -0.181479 -0.200893 0.613431 -4.701233 -9.728791 -1.477630 12.296708 -74.707182 -9.724497 -1.400863 -4.379552 45.510698 -0.000004 0.000004 -0.000006 -0.275226 0.045044 0.007806 0.000007 0.000004 0.000006 0.000006 0.000005 0.000000 -0.000005 0.000001 0.000002 -0.250517 0.107713 0.018014 0.000003 -0.000002 -0.000004 -0.000007 -0.000003 -0.000007 -0.000002 0.000002 -0.000003 -0.208661 0.163169 0.016174 0.000000 -0.000003 -0.000005 -0.000002 -0.000004 0.000013 -0.000001 0.000004 0.000010 -0.170713 0.198016 -0.014907 -0.000003 0.000003 0.000007 0.000000 -0.000007 0.000003 0.000005 0.000004 0.000001 -0.064879 -0.011091 -0.047555 0.000004 0.000008 0.000001 -0.000000 -0.000005 0.000007 0.000006 -0.000006 0.000007 -0.259678 0.207277 0.233190 -54.209036 21.079984 -9.626218 52.001372 -19.574969 11.413178 -0.327879 0.714270 -0.848362 -9.104062 4.284558 0.035287 0.299532 -0.036015 0.318618 -37.124117 14.482429 13.828647 62.186994 -21.577413 15.298251 -0.856980 0.323553 0.092773 -35.510208 15.677781 3.836303 
-0.935156 0.050389 1.938692 13.775506 12.996889 -296.221753 0.047024 0.119542 0.273792 -0.000000 0.000004 -0.000004 -2.714109 0.229679 -6.730311 -9.260458 0.743284 -25.209542 -0.040742 -0.039617 0.658949 -6.563307 6.794578 1.449278 -14.718757 -3.930809 -2.167134 -0.072781 -0.252005 0.617078 0.140155 0.301523 0.032723 10.819385 -4.804973 -14.610063 -0.117678 -0.124963 1.682158 -0.000007 0.000015 -0.000001 0.209365 -0.182822 0.024066 0.000004 0.000004 -0.000011 0.000011 0.000010 -0.000005 -0.000007 0.000001 0.000004 0.241307 -0.123551 0.034519 0.000001 0.000008 0.000013 -0.000001 -0.000002 -0.000000 0.000005 0.000001 -0.000001 0.257443 -0.056004 0.031813 -0.000002 -0.000006 0.000003 -0.000002 -0.000002 -0.000002 -0.000001 0.000008 -0.000009 0.261814 -0.005368 -0.000391 -0.000005 0.000006 -0.000000 0.000000 -0.000013 -0.000010 0.000000 -0.000001 -0.000002 0.035363 -0.058230 -0.044193 -0.000012 0.000013 -0.000001 0.000011 0.000008 -0.000010 0.000011 0.000003 -0.000004 -0.181479 -0.200894 0.613431 -4.633521 -9.594764 -1.451373 25.774520 -73.976802 1.317146 -1.321770 -4.964089 51.223236 -0.000000 0.000003 -0.000006 -0.275226 0.045044 0.007806 0.000004 0.000006 0.000006 0.000001 0.000005 0.000003 -0.000006 -0.000001 0.000002 -0.250517 0.107713 0.018013 -0.000001 -0.000001 -0.000007 -0.000005 -0.000001 -0.000009 -0.000006 0.000002 0.000000 -0.208662 0.163168 0.016174 -0.000001 -0.000003 -0.000004 -0.000005 -0.000003 0.000009 0.000000 0.000003 0.000010 -0.170714 0.198016 -0.014907 -0.000004 0.000003 0.000003 -0.000001 -0.000006 0.000010 0.000005 0.000006 -0.000001 -0.064880 -0.011091 -0.047555 0.000001 0.000005 0.000000 0.000006 -0.000010 0.000012 0.000009 -0.000003 0.000006 -0.259678 0.207277 0.233190 -54.460131 21.690367 -9.626219 53.414938 -19.894702 11.932092 0.234518 0.640123 -1.118460 -10.276201 4.832460 0.089280 0.299414 -0.036536 0.316106 -44.164768 11.008740 11.665649 66.964903 -22.273894 17.219583 -1.177522 0.770694 -0.349280 -33.453799 14.892847 3.358922 
-0.885760 0.067938 1.931350 14.665511 12.659061 -299.531171 0.047024 0.119542 0.273792 -0.000001 0.000003 -0.000003 -2.679674 0.316538 -6.619456 -9.177868 0.830298 -24.698454 -0.040742 -0.039617 0.658949 -6.540407 6.613589 1.378838 -14.792965 -4.160726 -2.230310 -0.072781 -0.252005 0.617077 0.166543 0.358598 0.038837 10.512479 -2.781047 -8.853387 -0.103042 -0.109125 1.467655 -0.000008 0.000015 -0.000003 0.209365 -0.182822 0.024066 0.000002 0.000001 -0.000014 0.000009 0.000012 -0.000007 -0.000006 0.000002 0.000004 0.241307 -0.123551 0.034519 0.000001 0.000006 0.000012 0.000001 -0.000003 -0.000000 0.000006 -0.000000 -0.000001 0.257443 -0.056004 0.031813 -0.000002 -0.000008 -0.000001 -0.000005 -0.000001 -0.000000 0.000004 0.000007 -0.000009 0.261814 -0.005368 -0.000391 -0.000007 0.000006 -0.000001 -0.000003 -0.000013 -0.000008 0.000001 -0.000001 -0.000003 0.035363 -0.058230 -0.044193 -0.000006 0.000008 -0.000006 0.000015 0.000004 -0.000003 0.000004 0.000001 -0.000003 -0.181479 -0.200894 0.613430 -4.570750 -9.470333 -1.427133 28.239294 -72.225801 1.432069 -1.156395 -5.630338 57.879849 -0.000005 0.000006 -0.000006 -0.275225 0.045043 0.007806 0.000007 0.000006 0.000007 0.000002 0.000003 0.000001 -0.000002 0.000000 -0.000001 -0.250517 0.107713 0.018014 -0.000003 0.000002 -0.000005 -0.000001 -0.000005 -0.000007 -0.000001 0.000001 -0.000002 -0.208661 0.163168 0.016174 0.000001 -0.000002 -0.000004 -0.000002 -0.000004 0.000011 -0.000001 0.000004 0.000006 -0.170713 0.198016 -0.014907 -0.000006 0.000005 0.000008 0.000000 -0.000005 0.000010 0.000007 0.000003 0.000005 -0.064879 -0.011091 -0.047555 0.000002 0.000009 0.000002 0.000002 -0.000006 0.000013 0.000011 0.000000 0.000003 -0.259678 0.207277 0.233190 -55.002834 22.507850 -9.236670 54.790326 -20.192928 12.443777 0.217427 0.965695 -1.595815 -10.583726 4.975900 0.105291 0.299293 -0.037058 0.313612 -50.431760 7.644380 8.299163 69.632092 -22.594921 18.313127 -0.816277 0.991442 -0.919177 -31.185711 14.002118 2.864967 
-0.833660 0.083426 1.924719 15.605399 12.172280 -302.650709 0.047024 0.119542 0.273792 -0.000002 0.000001 -0.000006 -2.643840 0.414167 -6.491894 -9.069867 1.017820 -23.957309 -0.040742 -0.039617 0.658948 -6.510543 6.428103 1.307653 -14.825197 -4.237864 -2.252256 -0.072781 -0.252005 0.617077 0.185713 0.400288 0.043278 9.978389 -0.948047 -3.618579 -0.078307 -0.082753 1.107529 -0.000003 0.000014 -0.000004 0.209365 -0.182822 0.024067 0.000003 0.000001 -0.000014 0.000009 0.000016 -0.000003 -0.000004 0.000003 0.000002 0.241306 -0.123551 0.034520 0.000001 0.000004 0.000011 -0.000001 0.000000 -0.000000 0.000005 -0.000002 -0.000005 0.257443 -0.056005 0.031813 -0.000002 -0.000008 -0.000001 -0.000004 -0.000001 -0.000000 0.000001 0.000008 -0.000009 0.261814 -0.005369 -0.000391 -0.000005 0.000006 0.000000 0.000001 -0.000014 -0.000009 0.000001 0.000000 -0.000001 0.035363 -0.058230 -0.044193 -0.000005 0.000008 -0.000002 0.000008 0.000003 -0.000004 0.000008 0.000003 -0.000005 -0.181479 -0.200894 0.613430 -4.513990 -9.357672 -1.405341 27.020792 -70.210165 -2.349609 -0.881022 -6.345621 65.322625 -0.000000 0.000001 -0.000006 -0.275225 0.045043 0.007806 0.000006 0.000005 0.000004 0.000006 0.000005 0.000001 -0.000008 0.000001 -0.000004 -0.250517 0.107713 0.018014 0.000002 -0.000001 -0.000006 -0.000005 -0.000004 -0.000011 0.000001 -0.000001 -0.000003 -0.208661 0.163169 0.016174 -0.000000 0.000001 -0.000004 -0.000008 -0.000003 0.000011 -0.000000 0.000003 0.000010 -0.170713 0.198016 -0.014907 -0.000004 0.000005 0.000006 -0.000001 -0.000009 0.000007 0.000007 0.000004 0.000003 -0.064879 -0.011091 -0.047555 0.000004 0.000007 -0.000000 0.000004 -0.000009 0.000013 0.000011 -0.000004 -0.000000 -0.259678 0.207277 0.233190 -55.596698 23.409198 -8.392184 56.197222 -20.484803 12.973831 -0.051118 1.196696 -1.754906 -10.696828 5.028620 0.111377 0.299168 -0.037581 0.311137 -55.172892 4.349782 4.452972 69.585619 -22.589744 18.293958 -0.183050 0.859908 -1.162907 -28.620338 12.964665 2.348776 
-0.775087 0.092994 1.915545 16.394633 11.604789 -305.526793 0.047024 0.119542 0.273792 -0.000003 0.000003 -0.000004 -2.606886 0.522901 -6.349519 -8.933613 1.297114 -23.090255 -0.040742 -0.039617 0.658949 -6.476254 6.234176 1.233828 -14.814902 -4.142775 -2.228489 -0.072781 -0.252006 0.617077 0.196884 0.424749 0.045880 9.271668 0.709486 1.201994 -0.056605 -0.059760 0.794948 -0.000007 0.000015 -0.000004 0.209365 -0.182822 0.024066 0.000008 0.000000 -0.000012 0.000009 0.000011 -0.000005 -0.000002 -0.000001 0.000005 0.241306 -0.123551 0.034519 0.000003 0.000005 0.000012 -0.000003 -0.000000 -0.000000 0.000006 -0.000001 0.000000 0.257442 -0.056005 0.031813 -0.000001 -0.000009 -0.000001 -0.000005 0.000000 -0.000002 0.000000 0.000008 -0.000011 0.261814 -0.005368 -0.000391 -0.000003 0.000005 0.000001 -0.000002 -0.000014 -0.000014 0.000001 -0.000001 -0.000001 0.035362 -0.058230 -0.044193 -0.000005 0.000012 -0.000004 0.000020 0.000009 -0.000007 0.000007 0.000004 -0.000003 -0.181479 -0.200894 0.613431 -4.463786 -9.257896 -1.386137 26.562532 -68.243289 -5.482876 -0.510470 -7.024679 72.841037 -0.000003 0.000002 -0.000010 -0.275226 0.045044 0.007806 0.000012 0.000002 0.000008 0.000003 0.000003 0.000002 -0.000008 -0.000002 -0.000000 -0.250517 0.107713 0.018014 0.000005 -0.000004 -0.000004 -0.000005 -0.000005 -0.000007 0.000000 -0.000001 0.000003 -0.208661 0.163169 0.016174 0.000003 -0.000004 -0.000004 -0.000006 -0.000000 0.000009 0.000002 0.000003 0.000011 -0.170713 0.198016 -0.014907 -0.000003 0.000004 0.000009 -0.000001 -0.000007 0.000005 0.000007 0.000005 0.000001 -0.064879 -0.011091 -0.047555 0.000003 0.000005 0.000005 0.000004 -0.000013 0.000006 0.000007 -0.000002 0.000005 -0.259678 0.207277 0.233190 -55.974787 24.470498 -7.577861 57.845630 -20.809761 13.603000 -0.846648 1.235120 -1.259963 -10.691569 5.026169 0.111093 0.299040 -0.038106 0.308683 -58.066614 0.477111 1.287210 66.714781 -22.241302 17.117745 0.090574 0.571162 -0.928161 -25.170512 11.523020 1.728306 
